Coordinates
version=1
nRows=49
nColumns=12
inDegrees=yes

Units are S.I. units (second, meters, Newtons, ...)
Angles are in degrees

endheader
time	SC_y	SC_z	SC_x	AC_y	AC_z	AC_x	GH_y	GH_z	GH_yy	EL_x	PS_y
       0.0              -39.78         -2.101          29.23          66.93         -18.23          3.706         -158.4          74.02         -73.44          124.9           22.0
    0.0292              -39.78         -2.097          29.24          66.93         -18.23          3.703         -158.4          74.02         -73.42          124.9          22.01
    0.0584              -39.78         -2.093          29.25          66.93         -18.23          3.701         -158.4          74.02         -73.41          124.8          22.01
    0.0876              -39.77         -2.088          29.26          66.92         -18.22          3.698         -158.3          74.02         -73.39          124.8          22.02
    0.1168              -39.77         -2.083          29.27          66.92         -18.22          3.695         -158.3          74.03         -73.37          124.8          22.04
     0.146              -39.77         -2.078          29.27          66.91         -18.21          3.692         -158.3          74.03         -73.35          124.8          22.05
    0.1752              -39.76         -2.072          29.28          66.91         -18.21          3.689         -158.2          74.03         -73.33          124.8          22.06
    0.2044              -39.76         -2.066          29.29           66.9          -18.2          3.686         -158.2          74.03         -73.31          124.7          22.07
    0.2336              -39.75         -2.059          29.31           66.9          -18.2          3.682         -158.1          74.03         -73.29          124.7          22.08
    0.2628              -39.75         -2.052          29.32          66.89         -18.19          3.678         -158.1          74.03         -73.27          124.7           22.1
     0.292              -39.74         -2.045          29.33          66.88         -18.18          3.674         -158.0          74.04         -73.24          124.7          22.11
    0.3212              -39.74         -2.037          29.34          66.88         -18.18           3.67         -158.0          74.04         -73.21          124.6          22.13
    0.3504              -39.73         -2.028          29.36          66.87         -18.17          3.665         -157.9          74.04         -73.18          124.6          22.15
    0.3796              -39.73         -2.019          29.37          66.86         -18.16           3.66         -157.9          74.04         -73.15          124.6          22.17
    0.4088              -39.72         -2.009          29.39          66.85         -18.15          3.654         -157.8          74.05         -73.12          124.5          22.19
     0.438              -39.71         -1.998          29.41          66.84         -18.14          3.648         -157.7          74.05         -73.08          124.5          22.21
    0.4672               -39.7         -1.986          29.43          66.83         -18.13          3.641         -157.7          74.05         -73.04          124.5          22.24
    0.4964               -39.7         -1.973          29.45          66.82         -18.12          3.634         -157.6          74.06         -72.99          124.4          22.27
    0.5256              -39.69         -1.958          29.48          66.81         -18.11          3.626         -157.5          74.06         -72.94          124.4           22.3
    0.5548              -39.68         -1.943           29.5           66.8          -18.1          3.617         -157.4          74.06         -72.89          124.3          22.33
     0.584              -39.67         -1.926          29.53          66.78         -18.08          3.608         -157.3          74.07         -72.83          124.2          22.36
    0.6132              -39.65         -1.907          29.56          66.77         -18.07          3.597         -157.1          74.07         -72.77          124.2           22.4
    0.6424              -39.64         -1.886           29.6          66.75         -18.05          3.586         -157.0          74.08         -72.69          124.1          22.45
    0.6716              -39.62         -1.863          29.64          66.73         -18.03          3.573         -156.8          74.09         -72.61          124.0           22.5
    0.7008              -39.61         -1.837          29.68          66.71         -18.01          3.559         -156.7          74.09         -72.53          123.9          22.55
      0.73              -39.59         -1.809          29.73          66.68         -17.98          3.543         -156.5           74.1         -72.43          123.8          22.61
    0.7592              -39.57         -1.777          29.79          66.65         -17.96          3.525         -156.3          74.11         -72.32          123.7          22.68
    0.7884              -39.54          -1.74          29.85          66.62         -17.93          3.505         -156.0          74.12         -72.19          123.6          22.75
    0.8176              -39.51           -1.7          29.92          66.59         -17.89          3.482         -155.8          74.13         -72.05          123.4          22.84
    0.8468              -39.48         -1.653          29.99          66.55         -17.85          3.457         -155.5          74.14         -71.89          123.3          22.93
     0.876              -39.45         -1.601          30.08           66.5         -17.81          3.427         -155.1          74.16         -71.71          123.1          23.04
    0.9052              -39.41          -1.54          30.19          66.45         -17.76          3.393         -154.7          74.17          -71.5          122.8          23.17
    0.9344              -39.36          -1.47           30.3          66.39          -17.7          3.355         -154.3          74.19         -71.26          122.6          23.32
    0.9636              -39.31         -1.389          30.44          66.32         -17.63          3.309         -153.7          74.22         -70.98          122.3          23.49
    0.9928              -39.25         -1.294           30.6          66.24         -17.55          3.256         -153.1          74.24         -70.65          122.0          23.69
     1.022              -39.17         -1.182          30.79          66.14         -17.45          3.194         -152.4          74.27         -70.27          121.6          23.92
     1.051              -39.08         -1.048          31.02          66.02         -17.34           3.12         -151.5          74.31         -69.81          121.1           24.2
      1.08              -38.98        -0.8887          31.29          65.89          -17.2          3.031         -150.5          74.35         -69.26          120.5          24.53
      1.11              -38.85        -0.6955          31.62          65.72         -17.04          2.924         -149.2          74.41         -68.59          119.8          24.94
     1.139              -38.69        -0.4595          32.02          65.52         -16.84          2.792         -147.6          74.47         -67.78          119.0          25.43
     1.168               -38.5        -0.1682          32.51          65.27         -16.59           2.63         -145.7          74.55         -66.77          117.9          26.04
     1.197              -38.26         0.1951          33.13          64.95         -16.28          2.428         -143.4          74.65         -65.52          116.6           26.8
     1.226              -37.95         0.6527          33.91          64.56         -15.89          2.174         -140.3          74.78         -63.95          115.0          27.76
     1.256              -37.57          1.234          34.89          64.06          -15.4           1.85         -136.5          74.94         -61.94          112.9          28.98
     1.285              -37.07          1.979          36.16          63.41         -14.77          1.436         -131.6          75.14         -59.38          110.2          30.54
     1.314              -36.44          2.935          37.78          62.59         -13.96         0.9042         -125.4           75.4         -56.08          106.7          32.54
     1.343              -35.62          4.155          39.85          61.54         -12.92         0.2252         -117.4          75.74         -51.88          102.3          35.09
     1.372               -34.6           5.69          42.45          60.22         -11.62        -0.6285         -107.3          76.16         -46.59          96.82           38.3
     1.402              -33.36           7.56          45.63           58.6         -10.03         -1.669         -95.04          76.67         -40.14          90.09          42.22
